<?xml version="1.0" standalone="no"?>
<!DOCTYPE svg PUBLIC "-//W3C//DTD SVG 20010904//EN"
 "http://www.w3.org/TR/2001/REC-SVG-20010904/DTD/svg10.dtd">
<svg version="1.0" xmlns="http://www.w3.org/2000/svg"
 width="64.000000pt" height="64.000000pt" viewBox="0 0 64.000000 64.000000"
 preserveAspectRatio="xMidYMid meet">

<g transform="translate(0.000000,64.000000) scale(0.100000,-0.100000)"
fill="#000000" stroke="none">
<path d="M112 603 c-18 -9 -45 -32 -60 -51 -27 -35 -27 -38 -30 -216 -3 -172
-2 -183 20 -226 17 -33 35 -51 68 -68 41 -20 58 -22 210 -22 152 0 169 2 210
23 69 34 91 86 88 202 -2 72 -6 90 -18 90 -12 0 -16 -15 -18 -67 l-3 -68 -30
22 c-40 30 -98 30 -138 0 l-30 -22 -42 45 c-48 52 -97 70 -148 55 -42 -12 -66
-33 -103 -89 l-28 -45 0 163 c0 133 3 168 16 191 30 50 61 60 183 60 104 0
111 1 111 20 0 19 -7 20 -112 20 -84 0 -122 -5 -146 -17z"/>
<path d="M474 606 c-38 -27 -77 -87 -65 -99 8 -8 20 -2 46 23 l34 33 3 -89 c2
-71 6 -89 18 -89 12 0 16 18 18 89 l3 89 34 -33 c26 -25 38 -31 46 -23 9 9 2
23 -25 56 -49 60 -74 69 -112 43z"/>
</g>
</svg>
