<svg width="258" height="105" viewBox="0 0 258 105" fill="none" xmlns="http://www.w3.org/2000/svg">
<g clip-path="url(#clip0_215_323)">
<g clip-path="url(#clip1_215_323)">
<mask id="mask0_215_323" style="mask-type:luminance" maskUnits="userSpaceOnUse" x="74" y="56" width="30" height="30">
<path d="M103.055 56.957H74.5026C74.5026 72.619 87.3506 85.435 103.055 85.435V56.957Z" fill="white"/>
</mask>
<g mask="url(#mask0_215_323)">
<path d="M74.5026 56.957H103.055V85.435H74.5026V56.957Z" fill="url(#paint0_linear_215_323)"/>
</g>
<mask id="mask1_215_323" style="mask-type:luminance" maskUnits="userSpaceOnUse" x="37" y="28" width="29" height="78">
<path d="M37.2487 76.5247C37.2487 92.188 50.0967 105.003 65.8008 105.003V28.4766H37.2487V76.5247Z" fill="white"/>
</mask>
<g mask="url(#mask1_215_323)">
<path d="M37.2487 28.4844H65.8008V105.006H37.2487V28.4844Z" fill="url(#paint1_linear_215_323)"/>
</g>
<mask id="mask2_215_323" style="mask-type:luminance" maskUnits="userSpaceOnUse" x="0" y="0" width="29" height="86">
<path d="M28.5527 56.9559C28.5527 72.6179 15.7048 85.4338 0.00201187 85.4338V0H28.5527V56.9559Z" fill="white"/>
</mask>
<g mask="url(#mask2_215_323)">
<path d="M0.00458336 0H28.5566V85.4338H0.00458336V0Z" fill="url(#paint2_linear_215_323)"/>
</g>
</g>
<path d="M96.3062 33.9428C96.3062 35.2848 95.9897 36.5507 95.3567 37.7407C94.7237 38.9307 93.711 39.9055 92.3184 40.6651C90.9258 41.3994 89.1408 41.7665 86.9634 41.7665H82.178V52.4766H77.8484V26.0812H86.9634C88.9889 26.0812 90.698 26.4357 92.0905 27.1446C93.5084 27.8282 94.5591 28.7651 95.2428 29.9551C95.9517 31.1451 96.3062 32.4743 96.3062 33.9428ZM86.9634 38.2345C88.6091 38.2345 89.8371 37.8673 90.6473 37.1331C91.4575 36.3735 91.8626 35.3101 91.8626 33.9428C91.8626 31.0564 90.2296 29.6132 86.9634 29.6132H82.178V38.2345H86.9634ZM112.399 31.2084C113.994 31.2084 115.412 31.5502 116.652 32.2338C117.918 32.9174 118.906 33.9302 119.615 35.2721C120.349 36.614 120.716 38.2345 120.716 40.1334V52.4766H116.425V40.7791C116.425 38.9054 115.956 37.4749 115.019 36.4874C114.083 35.4747 112.804 34.9683 111.184 34.9683C109.563 34.9683 108.272 35.4747 107.31 36.4874C106.373 37.4749 105.904 38.9054 105.904 40.7791V52.4766H101.575V24.3722H105.904V33.9808C106.639 33.0946 107.563 32.411 108.677 31.93C109.816 31.4489 111.057 31.2084 112.399 31.2084ZM129.581 28.7777C128.796 28.7777 128.138 28.5119 127.606 27.9802C127.074 27.4484 126.809 26.7901 126.809 26.0052C126.809 25.2204 127.074 24.562 127.606 24.0303C128.138 23.4986 128.796 23.2328 129.581 23.2328C130.341 23.2328 130.986 23.4986 131.518 24.0303C132.05 24.562 132.316 25.2204 132.316 26.0052C132.316 26.7901 132.05 27.4484 131.518 27.9802C130.986 28.5119 130.341 28.7777 129.581 28.7777ZM131.708 31.5502V52.4766H127.378V31.5502H131.708ZM142.861 24.3722V52.4766H138.532V24.3722H142.861ZM151.888 28.7777C151.103 28.7777 150.445 28.5119 149.913 27.9802C149.381 27.4484 149.115 26.7901 149.115 26.0052C149.115 25.2204 149.381 24.562 149.913 24.0303C150.445 23.4986 151.103 23.2328 151.888 23.2328C152.647 23.2328 153.293 23.4986 153.825 24.0303C154.356 24.562 154.622 25.2204 154.622 26.0052C154.622 26.7901 154.356 27.4484 153.825 27.9802C153.293 28.5119 152.647 28.7777 151.888 28.7777ZM154.015 31.5502V52.4766H149.685V31.5502H154.015ZM165.168 34.6265C165.902 33.6643 166.902 32.8541 168.168 32.1958C169.434 31.5375 170.865 31.2084 172.46 31.2084C174.283 31.2084 175.941 31.6641 177.435 32.5756C178.954 33.4618 180.144 34.7151 181.005 36.3355C181.866 37.956 182.296 39.8169 182.296 41.9184C182.296 44.0199 181.866 45.9062 181.005 47.5773C180.144 49.223 178.954 50.5143 177.435 51.4511C175.941 52.3626 174.283 52.8184 172.46 52.8184C170.865 52.8184 169.447 52.5019 168.206 51.8689C166.966 51.2106 165.953 50.4004 165.168 49.4382V62.427H160.838V31.5502H165.168V34.6265ZM177.891 41.9184C177.891 40.4752 177.587 39.2346 176.979 38.1965C176.397 37.1331 175.612 36.3355 174.625 35.8038C173.663 35.2468 172.624 34.9683 171.51 34.9683C170.422 34.9683 169.384 35.2468 168.396 35.8038C167.434 36.3608 166.649 37.1711 166.041 38.2345C165.459 39.2979 165.168 40.5512 165.168 41.9944C165.168 43.4376 165.459 44.7035 166.041 45.7923C166.649 46.8557 167.434 47.6659 168.396 48.2229C169.384 48.7799 170.422 49.0585 171.51 49.0585C172.624 49.0585 173.663 48.7799 174.625 48.2229C175.612 47.6406 176.397 46.805 176.979 45.7163C177.587 44.6276 177.891 43.3616 177.891 41.9184ZM192.047 34.6265C192.781 33.6643 193.781 32.8541 195.047 32.1958C196.313 31.5375 197.744 31.2084 199.339 31.2084C201.162 31.2084 202.82 31.6641 204.314 32.5756C205.833 33.4618 207.023 34.7151 207.884 36.3355C208.745 37.956 209.175 39.8169 209.175 41.9184C209.175 44.0199 208.745 45.9062 207.884 47.5773C207.023 49.223 205.833 50.5143 204.314 51.4511C202.82 52.3626 201.162 52.8184 199.339 52.8184C197.744 52.8184 196.326 52.5019 195.085 51.8689C193.845 51.2106 192.832 50.4004 192.047 49.4382V62.427H187.717V31.5502H192.047V34.6265ZM204.77 41.9184C204.77 40.4752 204.466 39.2346 203.858 38.1965C203.276 37.1331 202.491 36.3355 201.504 35.8038C200.542 35.2468 199.503 34.9683 198.389 34.9683C197.301 34.9683 196.263 35.2468 195.275 35.8038C194.313 36.3608 193.528 37.1711 192.92 38.2345C192.338 39.2979 192.047 40.5512 192.047 41.9944C192.047 43.4376 192.338 44.7035 192.92 45.7923C193.528 46.8557 194.313 47.6659 195.275 48.2229C196.263 48.7799 197.301 49.0585 198.389 49.0585C199.503 49.0585 200.542 48.7799 201.504 48.2229C202.491 47.6406 203.276 46.805 203.858 45.7163C204.466 44.6276 204.77 43.3616 204.77 41.9184ZM223.673 52.8184C221.698 52.8184 219.913 52.3753 218.318 51.4891C216.723 50.5776 215.47 49.3117 214.558 47.6912C213.647 46.0455 213.191 44.1465 213.191 41.9944C213.191 39.8676 213.659 37.9813 214.596 36.3355C215.533 34.6898 216.812 33.4238 218.432 32.5376C220.053 31.6515 221.863 31.2084 223.863 31.2084C225.863 31.2084 227.674 31.6515 229.294 32.5376C230.915 33.4238 232.193 34.6898 233.13 36.3355C234.067 37.9813 234.535 39.8676 234.535 41.9944C234.535 44.1212 234.054 46.0075 233.092 47.6532C232.13 49.299 230.813 50.5776 229.142 51.4891C227.496 52.3753 225.673 52.8184 223.673 52.8184ZM223.673 49.0585C224.787 49.0585 225.825 48.7926 226.788 48.2609C227.775 47.7292 228.573 46.9316 229.18 45.8682C229.788 44.8048 230.092 43.5135 230.092 41.9944C230.092 40.4752 229.801 39.1966 229.218 38.1585C228.636 37.0951 227.864 36.2975 226.901 35.7658C225.939 35.2341 224.901 34.9683 223.787 34.9683C222.673 34.9683 221.635 35.2341 220.673 35.7658C219.736 36.2975 218.989 37.0951 218.432 38.1585C217.875 39.1966 217.597 40.4752 217.597 41.9944C217.597 44.2478 218.166 45.9948 219.306 47.2355C220.47 48.4508 221.926 49.0585 223.673 49.0585ZM247.55 52.8184C245.905 52.8184 244.424 52.5272 243.107 51.9449C241.816 51.3372 240.79 50.527 240.031 49.5142C239.271 48.4761 238.866 47.3241 238.815 46.0581H243.297C243.373 46.9443 243.791 47.6912 244.55 48.2989C245.335 48.8812 246.31 49.1724 247.474 49.1724C248.69 49.1724 249.627 48.9445 250.285 48.4888C250.969 48.0077 251.31 47.4 251.31 46.6658C251.31 45.8809 250.931 45.2985 250.171 44.9188C249.437 44.539 248.259 44.1212 246.639 43.6655C245.069 43.235 243.791 42.8173 242.803 42.4121C241.816 42.007 240.955 41.3867 240.221 40.5512C239.512 39.7156 239.157 38.6143 239.157 37.247C239.157 36.133 239.486 35.1202 240.145 34.2087C240.803 33.2719 241.74 32.5376 242.955 32.0059C244.196 31.4742 245.614 31.2084 247.209 31.2084C249.589 31.2084 251.5 31.816 252.943 33.0314C254.412 34.2214 255.197 35.8545 255.298 37.9306H250.969C250.893 36.9938 250.513 36.2469 249.829 35.6899C249.146 35.1329 248.221 34.8543 247.057 34.8543C245.917 34.8543 245.044 35.0696 244.436 35.5C243.829 35.9304 243.525 36.5001 243.525 37.209C243.525 37.7661 243.727 38.2345 244.132 38.6143C244.537 38.994 245.031 39.2979 245.614 39.5257C246.196 39.7283 247.057 39.9942 248.196 40.3233C249.715 40.7284 250.956 41.1462 251.918 41.5766C252.905 41.9817 253.754 42.5894 254.463 43.3996C255.172 44.2098 255.539 45.2859 255.564 46.6278C255.564 47.8178 255.235 48.8812 254.577 49.818C253.918 50.7549 252.981 51.4891 251.766 52.0208C250.576 52.5525 249.171 52.8184 247.55 52.8184Z" fill="#174F62"/>
<path d="M113.493 72.2933C113.493 71.5556 113.644 70.9022 113.947 70.3333C114.258 69.7644 114.676 69.3244 115.2 69.0133C115.733 68.6933 116.32 68.5333 116.96 68.5333C117.538 68.5333 118.04 68.6489 118.467 68.88C118.902 69.1022 119.249 69.3822 119.507 69.72V68.6533H121.04V76H119.507V74.9067C119.249 75.2533 118.898 75.5422 118.453 75.7733C118.009 76.0044 117.502 76.12 116.933 76.12C116.302 76.12 115.724 75.96 115.2 75.64C114.676 75.3111 114.258 74.8578 113.947 74.28C113.644 73.6933 113.493 73.0311 113.493 72.2933ZM119.507 72.32C119.507 71.8133 119.4 71.3733 119.187 71C118.982 70.6267 118.711 70.3422 118.373 70.1467C118.036 69.9511 117.671 69.8533 117.28 69.8533C116.889 69.8533 116.524 69.9511 116.187 70.1467C115.849 70.3333 115.573 70.6133 115.36 70.9867C115.156 71.3511 115.053 71.7867 115.053 72.2933C115.053 72.8 115.156 73.2444 115.36 73.6267C115.573 74.0089 115.849 74.3022 116.187 74.5067C116.533 74.7022 116.898 74.8 117.28 74.8C117.671 74.8 118.036 74.7022 118.373 74.5067C118.711 74.3111 118.982 74.0267 119.187 73.6533C119.4 73.2711 119.507 72.8267 119.507 72.32ZM125.703 76.12C125.125 76.12 124.605 76.0178 124.143 75.8133C123.69 75.6 123.33 75.3156 123.063 74.96C122.796 74.5956 122.654 74.1911 122.636 73.7467H124.21C124.236 74.0578 124.383 74.32 124.65 74.5333C124.925 74.7378 125.268 74.84 125.676 74.84C126.103 74.84 126.432 74.76 126.663 74.6C126.903 74.4311 127.023 74.2178 127.023 73.96C127.023 73.6844 126.89 73.48 126.623 73.3467C126.365 73.2133 125.952 73.0667 125.383 72.9067C124.832 72.7556 124.383 72.6089 124.036 72.4667C123.69 72.3244 123.388 72.1067 123.13 71.8133C122.881 71.52 122.756 71.1333 122.756 70.6533C122.756 70.2622 122.872 69.9067 123.103 69.5867C123.334 69.2578 123.663 69 124.09 68.8133C124.525 68.6267 125.023 68.5333 125.583 68.5333C126.419 68.5333 127.09 68.7467 127.596 69.1733C128.112 69.5911 128.388 70.1644 128.423 70.8933H126.903C126.876 70.5644 126.743 70.3022 126.503 70.1067C126.263 69.9111 125.939 69.8133 125.53 69.8133C125.13 69.8133 124.823 69.8889 124.61 70.04C124.396 70.1911 124.29 70.3911 124.29 70.64C124.29 70.8356 124.361 71 124.503 71.1333C124.645 71.2667 124.819 71.3733 125.023 71.4533C125.228 71.5244 125.53 71.6178 125.93 71.7333C126.463 71.8756 126.899 72.0222 127.236 72.1733C127.583 72.3156 127.881 72.5289 128.13 72.8133C128.379 73.0978 128.508 73.4756 128.516 73.9467C128.516 74.3644 128.401 74.7378 128.17 75.0667C127.939 75.3956 127.61 75.6533 127.183 75.84C126.765 76.0267 126.272 76.12 125.703 76.12ZM132.826 76.12C132.248 76.12 131.728 76.0178 131.266 75.8133C130.812 75.6 130.452 75.3156 130.186 74.96C129.919 74.5956 129.777 74.1911 129.759 73.7467H131.332C131.359 74.0578 131.506 74.32 131.772 74.5333C132.048 74.7378 132.39 74.84 132.799 74.84C133.226 74.84 133.554 74.76 133.786 74.6C134.026 74.4311 134.146 74.2178 134.146 73.96C134.146 73.6844 134.012 73.48 133.746 73.3467C133.488 73.2133 133.074 73.0667 132.506 72.9067C131.954 72.7556 131.506 72.6089 131.159 72.4667C130.812 72.3244 130.51 72.1067 130.252 71.8133C130.003 71.52 129.879 71.1333 129.879 70.6533C129.879 70.2622 129.994 69.9067 130.226 69.5867C130.457 69.2578 130.786 69 131.212 68.8133C131.648 68.6267 132.146 68.5333 132.706 68.5333C133.541 68.5333 134.212 68.7467 134.719 69.1733C135.234 69.5911 135.51 70.1644 135.546 70.8933H134.026C133.999 70.5644 133.866 70.3022 133.626 70.1067C133.386 69.9111 133.061 69.8133 132.652 69.8133C132.252 69.8133 131.946 69.8889 131.732 70.04C131.519 70.1911 131.412 70.3911 131.412 70.64C131.412 70.8356 131.483 71 131.626 71.1333C131.768 71.2667 131.941 71.3733 132.146 71.4533C132.35 71.5244 132.652 71.6178 133.052 71.7333C133.586 71.8756 134.021 72.0222 134.359 72.1733C134.706 72.3156 135.003 72.5289 135.252 72.8133C135.501 73.0978 135.63 73.4756 135.639 73.9467C135.639 74.3644 135.523 74.7378 135.292 75.0667C135.061 75.3956 134.732 75.6533 134.306 75.84C133.888 76.0267 133.394 76.12 132.826 76.12ZM144.015 72.1467C144.015 72.4222 143.997 72.6711 143.961 72.8933H138.348C138.392 73.48 138.61 73.9511 139.001 74.3067C139.392 74.6622 139.872 74.84 140.441 74.84C141.259 74.84 141.837 74.4978 142.175 73.8133H143.815C143.592 74.4889 143.188 75.0444 142.601 75.48C142.023 75.9067 141.303 76.12 140.441 76.12C139.739 76.12 139.108 75.9644 138.548 75.6533C137.997 75.3333 137.561 74.8889 137.241 74.32C136.93 73.7422 136.775 73.0756 136.775 72.32C136.775 71.5644 136.926 70.9022 137.228 70.3333C137.539 69.7556 137.97 69.3111 138.521 69C139.081 68.6889 139.721 68.5333 140.441 68.5333C141.135 68.5333 141.752 68.6844 142.295 68.9867C142.837 69.2889 143.259 69.7156 143.561 70.2667C143.863 70.8089 144.015 71.4356 144.015 72.1467ZM142.428 71.6667C142.419 71.1067 142.219 70.6578 141.828 70.32C141.437 69.9822 140.952 69.8133 140.375 69.8133C139.85 69.8133 139.401 69.9822 139.028 70.32C138.655 70.6489 138.432 71.0978 138.361 71.6667H142.428ZM147.284 69.8933V73.96C147.284 74.2356 147.346 74.4356 147.47 74.56C147.604 74.6756 147.826 74.7333 148.137 74.7333H149.07V76H147.87C147.186 76 146.662 75.84 146.297 75.52C145.933 75.2 145.75 74.68 145.75 73.96V69.8933H144.884V68.6533H145.75V66.8267H147.284V68.6533H149.07V69.8933H147.284Z" fill="#174F62"/>
<path d="M163.889 68.5333C164.467 68.5333 164.983 68.6533 165.436 68.8933C165.898 69.1333 166.258 69.4889 166.516 69.96C166.783 70.4311 166.916 71 166.916 71.6667V76H165.409V71.8933C165.409 71.2356 165.245 70.7333 164.916 70.3867C164.587 70.0311 164.138 69.8533 163.569 69.8533C163.001 69.8533 162.547 70.0311 162.209 70.3867C161.881 70.7333 161.716 71.2356 161.716 71.8933V76H160.209V71.8933C160.209 71.2356 160.045 70.7333 159.716 70.3867C159.387 70.0311 158.938 69.8533 158.369 69.8533C157.801 69.8533 157.347 70.0311 157.009 70.3867C156.681 70.7333 156.516 71.2356 156.516 71.8933V76H154.996V68.6533H156.516V69.4933C156.765 69.1911 157.081 68.9556 157.463 68.7867C157.845 68.6178 158.254 68.5333 158.689 68.5333C159.276 68.5333 159.801 68.6578 160.263 68.9067C160.725 69.1556 161.081 69.5156 161.329 69.9867C161.552 69.5422 161.898 69.1911 162.369 68.9333C162.841 68.6667 163.347 68.5333 163.889 68.5333ZM168.344 72.2933C168.344 71.5556 168.495 70.9022 168.797 70.3333C169.108 69.7644 169.526 69.3244 170.05 69.0133C170.584 68.6933 171.17 68.5333 171.81 68.5333C172.388 68.5333 172.89 68.6489 173.317 68.88C173.752 69.1022 174.099 69.3822 174.357 69.72V68.6533H175.89V76H174.357V74.9067C174.099 75.2533 173.748 75.5422 173.304 75.7733C172.859 76.0044 172.352 76.12 171.784 76.12C171.152 76.12 170.575 75.96 170.05 75.64C169.526 75.3111 169.108 74.8578 168.797 74.28C168.495 73.6933 168.344 73.0311 168.344 72.2933ZM174.357 72.32C174.357 71.8133 174.25 71.3733 174.037 71C173.832 70.6267 173.561 70.3422 173.224 70.1467C172.886 69.9511 172.521 69.8533 172.13 69.8533C171.739 69.8533 171.375 69.9511 171.037 70.1467C170.699 70.3333 170.424 70.6133 170.21 70.9867C170.006 71.3511 169.904 71.7867 169.904 72.2933C169.904 72.8 170.006 73.2444 170.21 73.6267C170.424 74.0089 170.699 74.3022 171.037 74.5067C171.384 74.7022 171.748 74.8 172.13 74.8C172.521 74.8 172.886 74.7022 173.224 74.5067C173.561 74.3111 173.832 74.0267 174.037 73.6533C174.25 73.2711 174.357 72.8267 174.357 72.32ZM181.593 68.5333C182.171 68.5333 182.687 68.6533 183.14 68.8933C183.602 69.1333 183.962 69.4889 184.22 69.96C184.478 70.4311 184.607 71 184.607 71.6667V76H183.1V71.8933C183.1 71.2356 182.936 70.7333 182.607 70.3867C182.278 70.0311 181.829 69.8533 181.26 69.8533C180.691 69.8533 180.238 70.0311 179.9 70.3867C179.571 70.7333 179.407 71.2356 179.407 71.8933V76H177.887V68.6533H179.407V69.4933C179.656 69.1911 179.971 68.9556 180.353 68.7867C180.744 68.6178 181.158 68.5333 181.593 68.5333ZM186.039 72.2933C186.039 71.5556 186.19 70.9022 186.492 70.3333C186.803 69.7644 187.221 69.3244 187.746 69.0133C188.279 68.6933 188.866 68.5333 189.506 68.5333C190.083 68.5333 190.586 68.6489 191.012 68.88C191.448 69.1022 191.794 69.3822 192.052 69.72V68.6533H193.586V76H192.052V74.9067C191.794 75.2533 191.443 75.5422 190.999 75.7733C190.554 76.0044 190.048 76.12 189.479 76.12C188.848 76.12 188.27 75.96 187.746 75.64C187.221 75.3111 186.803 74.8578 186.492 74.28C186.19 73.6933 186.039 73.0311 186.039 72.2933ZM192.052 72.32C192.052 71.8133 191.946 71.3733 191.732 71C191.528 70.6267 191.257 70.3422 190.919 70.1467C190.581 69.9511 190.217 69.8533 189.826 69.8533C189.434 69.8533 189.07 69.9511 188.732 70.1467C188.394 70.3333 188.119 70.6133 187.906 70.9867C187.701 71.3511 187.599 71.7867 187.599 72.2933C187.599 72.8 187.701 73.2444 187.906 73.6267C188.119 74.0089 188.394 74.3022 188.732 74.5067C189.079 74.7022 189.443 74.8 189.826 74.8C190.217 74.8 190.581 74.7022 190.919 74.5067C191.257 74.3111 191.528 74.0267 191.732 73.6533C191.946 73.2711 192.052 72.8267 192.052 72.32ZM198.542 68.5333C199.111 68.5333 199.613 68.6489 200.049 68.88C200.493 69.1022 200.84 69.3822 201.089 69.72V68.6533H202.622V76.12C202.622 76.7956 202.48 77.3956 202.195 77.92C201.911 78.4533 201.498 78.8711 200.955 79.1733C200.422 79.4756 199.782 79.6267 199.035 79.6267C198.04 79.6267 197.213 79.3911 196.555 78.92C195.898 78.4578 195.524 77.8267 195.435 77.0267H196.942C197.058 77.4089 197.302 77.7156 197.675 77.9467C198.058 78.1867 198.511 78.3067 199.035 78.3067C199.649 78.3067 200.142 78.12 200.515 77.7467C200.898 77.3733 201.089 76.8311 201.089 76.12V74.8933C200.831 75.24 200.48 75.5333 200.035 75.7733C199.6 76.0044 199.102 76.12 198.542 76.12C197.902 76.12 197.315 75.96 196.782 75.64C196.258 75.3111 195.84 74.8578 195.529 74.28C195.226 73.6933 195.075 73.0311 195.075 72.2933C195.075 71.5556 195.226 70.9022 195.529 70.3333C195.84 69.7644 196.258 69.3244 196.782 69.0133C197.315 68.6933 197.902 68.5333 198.542 68.5333ZM201.089 72.32C201.089 71.8133 200.982 71.3733 200.769 71C200.564 70.6267 200.293 70.3422 199.955 70.1467C199.618 69.9511 199.253 69.8533 198.862 69.8533C198.471 69.8533 198.106 69.9511 197.769 70.1467C197.431 70.3333 197.155 70.6133 196.942 70.9867C196.738 71.3511 196.635 71.7867 196.635 72.2933C196.635 72.8 196.738 73.2444 196.942 73.6267C197.155 74.0089 197.431 74.3022 197.769 74.5067C198.115 74.7022 198.48 74.8 198.862 74.8C199.253 74.8 199.618 74.7022 199.955 74.5067C200.293 74.3111 200.564 74.0267 200.769 73.6533C200.982 73.2711 201.089 72.8267 201.089 72.32ZM211.352 72.1467C211.352 72.4222 211.334 72.6711 211.298 72.8933H205.685C205.73 73.48 205.947 73.9511 206.338 74.3067C206.73 74.6622 207.21 74.84 207.778 74.84C208.596 74.84 209.174 74.4978 209.512 73.8133H211.152C210.93 74.4889 210.525 75.0444 209.938 75.48C209.361 75.9067 208.641 76.12 207.778 76.12C207.076 76.12 206.445 75.9644 205.885 75.6533C205.334 75.3333 204.898 74.8889 204.578 74.32C204.267 73.7422 204.112 73.0756 204.112 72.32C204.112 71.5644 204.263 70.9022 204.565 70.3333C204.876 69.7556 205.307 69.3111 205.858 69C206.418 68.6889 207.058 68.5333 207.778 68.5333C208.472 68.5333 209.09 68.6844 209.632 68.9867C210.174 69.2889 210.596 69.7156 210.898 70.2667C211.201 70.8089 211.352 71.4356 211.352 72.1467ZM209.765 71.6667C209.756 71.1067 209.556 70.6578 209.165 70.32C208.774 69.9822 208.29 69.8133 207.712 69.8133C207.187 69.8133 206.738 69.9822 206.365 70.32C205.992 70.6489 205.77 71.0978 205.698 71.6667H209.765ZM221.741 68.5333C222.319 68.5333 222.834 68.6533 223.288 68.8933C223.75 69.1333 224.11 69.4889 224.368 69.96C224.634 70.4311 224.768 71 224.768 71.6667V76H223.261V71.8933C223.261 71.2356 223.097 70.7333 222.768 70.3867C222.439 70.0311 221.99 69.8533 221.421 69.8533C220.852 69.8533 220.399 70.0311 220.061 70.3867C219.732 70.7333 219.568 71.2356 219.568 71.8933V76H218.061V71.8933C218.061 71.2356 217.897 70.7333 217.568 70.3867C217.239 70.0311 216.79 69.8533 216.221 69.8533C215.652 69.8533 215.199 70.0311 214.861 70.3867C214.532 70.7333 214.368 71.2356 214.368 71.8933V76H212.848V68.6533H214.368V69.4933C214.617 69.1911 214.932 68.9556 215.314 68.7867C215.697 68.6178 216.105 68.5333 216.541 68.5333C217.128 68.5333 217.652 68.6578 218.114 68.9067C218.577 69.1556 218.932 69.5156 219.181 69.9867C219.403 69.5422 219.75 69.1911 220.221 68.9333C220.692 68.6667 221.199 68.5333 221.741 68.5333ZM233.435 72.1467C233.435 72.4222 233.417 72.6711 233.382 72.8933H227.768C227.813 73.48 228.031 73.9511 228.422 74.3067C228.813 74.6622 229.293 74.84 229.862 74.84C230.68 74.84 231.257 74.4978 231.595 73.8133H233.235C233.013 74.4889 232.608 75.0444 232.022 75.48C231.444 75.9067 230.724 76.12 229.862 76.12C229.16 76.12 228.528 75.9644 227.968 75.6533C227.417 75.3333 226.982 74.8889 226.662 74.32C226.351 73.7422 226.195 73.0756 226.195 72.32C226.195 71.5644 226.346 70.9022 226.648 70.3333C226.96 69.7556 227.391 69.3111 227.942 69C228.502 68.6889 229.142 68.5333 229.862 68.5333C230.555 68.5333 231.173 68.6844 231.715 68.9867C232.257 69.2889 232.68 69.7156 232.982 70.2667C233.284 70.8089 233.435 71.4356 233.435 72.1467ZM231.848 71.6667C231.84 71.1067 231.64 70.6578 231.248 70.32C230.857 69.9822 230.373 69.8133 229.795 69.8133C229.271 69.8133 228.822 69.9822 228.448 70.32C228.075 70.6489 227.853 71.0978 227.782 71.6667H231.848ZM238.638 68.5333C239.215 68.5333 239.731 68.6533 240.184 68.8933C240.647 69.1333 241.007 69.4889 241.264 69.96C241.522 70.4311 241.651 71 241.651 71.6667V76H240.144V71.8933C240.144 71.2356 239.98 70.7333 239.651 70.3867C239.322 70.0311 238.873 69.8533 238.304 69.8533C237.735 69.8533 237.282 70.0311 236.944 70.3867C236.615 70.7333 236.451 71.2356 236.451 71.8933V76H234.931V68.6533H236.451V69.4933C236.7 69.1911 237.015 68.9556 237.398 68.7867C237.789 68.6178 238.202 68.5333 238.638 68.5333ZM245.363 69.8933V73.96C245.363 74.2356 245.425 74.4356 245.55 74.56C245.683 74.6756 245.905 74.7333 246.217 74.7333H247.15V76H245.95C245.265 76 244.741 75.84 244.377 75.52C244.012 75.2 243.83 74.68 243.83 73.96V69.8933H242.963V68.6533H243.83V66.8267H245.363V68.6533H247.15V69.8933H245.363Z" fill="#174F62"/>
</g>
<defs>
<linearGradient id="paint0_linear_215_323" x1="88.4288" y1="49.9888" x2="88.8876" y2="77.9164" gradientUnits="userSpaceOnUse">
<stop stop-color="#00D9E0"/>
<stop offset="1" stop-color="#00B8CB"/>
</linearGradient>
<linearGradient id="paint1_linear_215_323" x1="49.5809" y1="28.5854" x2="52.4528" y2="85.2429" gradientUnits="userSpaceOnUse">
<stop stop-color="#279CDF"/>
<stop offset="1" stop-color="#1067B4"/>
</linearGradient>
<linearGradient id="paint2_linear_215_323" x1="5.41299" y1="4.60209" x2="19.3714" y2="64.9132" gradientUnits="userSpaceOnUse">
<stop stop-color="#3587A3"/>
<stop offset="1" stop-color="#174F62"/>
</linearGradient>
<clipPath id="clip0_215_323">
<rect width="258" height="105" fill="white"/>
</clipPath>
<clipPath id="clip1_215_323">
<rect width="103.056" height="105" fill="white" transform="matrix(-1 0 0 1 103.055 0)"/>
</clipPath>
</defs>
</svg>
