<?xml version="1.0" encoding="UTF-8"?>
<svg version="1.1" xmlns="http://www.w3.org/2000/svg" width="273" height="278">
<path d="M0 0 C25.08 0 50.16 0 76 0 C76.16121214 39.43875804 76.16121214 39.43875804 76.1953125 56.04492188 C76.21898931 67.48273952 76.24672838 78.92043876 76.30175781 90.3581543 C76.3418273 98.69051144 76.36748029 107.02277194 76.37635398 115.35522276 C76.38153495 119.76068414 76.39357276 124.16586922 76.42292023 128.57124138 C76.45040858 132.73190824 76.45837886 136.89218941 76.45243073 141.05293846 C76.45351624 142.56646076 76.4612688 144.07999824 76.4768219 145.59344101 C76.69329463 167.77758077 70.22556123 187.46768654 55 204 C39.185852 219.65867183 21.90527634 225.31497874 0 227 C0 152.09 0 77.18 0 0 Z " fill="#23677E" transform="translate(0,0)"/>
<path d="M0 0 C25.41 0 50.82 0 77 0 C77 66.99 77 133.98 77 203 C56.6632746 203 40.22057813 197.77346035 25 184 C24.23042969 183.32324219 23.46085937 182.64648438 22.66796875 181.94921875 C8.64682481 168.88351903 1.17348212 150.38706863 -0.26817894 131.48355293 C-0.36395299 127.95350356 -0.37209392 124.43572055 -0.34057617 120.90454102 C-0.34101425 119.58561859 -0.34145233 118.26669617 -0.34190369 116.9078064 C-0.34275268 113.34463064 -0.32530828 109.78176753 -0.30418181 106.21866345 C-0.28522874 102.47513305 -0.28365009 98.73159284 -0.28010559 94.98802185 C-0.27083916 87.92296796 -0.24629988 80.85805592 -0.21605712 73.79306406 C-0.17602011 64.22925136 -0.1600145 54.66539896 -0.14255047 45.1015234 C-0.11447378 30.06757633 -0.05466883 15.0339284 0 0 Z " fill="#197CC5" transform="translate(98,75)"/>
<path d="M0 0 C25.08 0 50.16 0 76 0 C76 25.41 76 50.82 76 77 C52.17471575 75.16728583 34.46941062 68.24415065 17.8125 50.8125 C5.40771261 36.1453641 0 19.03148002 0 0 Z " fill="#00C3D2" transform="translate(197,150)"/>
</svg>
